<?xml version="1.0" standalone="no"?>
<!DOCTYPE svg PUBLIC "-//W3C//DTD SVG 20010904//EN"
 "http://www.w3.org/TR/2001/REC-SVG-20010904/DTD/svg10.dtd">
<svg version="1.0" xmlns="http://www.w3.org/2000/svg"
 width="145.000000pt" height="145.000000pt" viewBox="0 0 145.000000 145.000000"
 preserveAspectRatio="xMidYMid meet">
<metadata>
Created by potrace 1.14, written by Peter Selinger 2001-2017
</metadata>
<g transform="translate(0.000000,145.000000) scale(0.100000,-0.100000)"
fill="#000000" stroke="none">
<path d="M99 1348 c-65 -39 -62 -13 -62 -618 0 -416 3 -556 13 -579 8 -20 26
-37 54 -49 39 -18 72 -19 633 -18 583 1 592 1 620 22 54 40 53 28 53 619 0
591 1 579 -53 619 -28 20 -36 21 -629 21 -550 0 -603 -1 -629 -17z"/>
</g>
</svg>
